# xmcd CD database file
#
# Track frame offsets:
#	150
#	13785
#	26040
#	38427
#	52302
#	65275
#	76902
#	88625
#	98465
#	110732
#	120937
#	132265
#	145137
#	155965
#	167165
#	183320
#
# Disc length: 2750 seconds
#
# Revision: 0
# Processed by: cddbd v1.5.2PL0 Copyright (c) Steve Scherf et al.
# Submitted via: CDex 1.70beta2
#
DISCID=d00abc10
DTITLE=Burt Bacharach - Various - The Greatest Hits of Burt Bacharach
DYEAR=2000
DGENRE=Jazz
TTITLE0=Gene Pitney - 24 Hrs From Tuls
TTITLE1=The Shirelles - Baby It's You
TTITLE2=Jerry Butler - Make It Easy On Yourself
TTITLE3=BJ Thomas - Raindrops Keep Fallin on My Head
TTITLE4=Tommy Hunt - I Just Don't Know What To Do With Myself
TTITLE5=Maxine Brown - I Cry Alone
TTITLE6=Gene Chandler - I Wake Up Crying
TTITLE7=Dee Clark - You're Telling Our Secrets
TTITLE8=The Merseybeats - Wishin' and Hopin'
TTITLE9=The Drifters - Please Stay
TTITLE10=Timi Yuro - Only Love Can Break A Heart
TTITLE11=Big Maybelle - I Just Dont Know What To Do With Myself
TTITLE12=Billy J Kramer and Dakotas - Trains and Boats and Planes
TTITLE13=Buddy Greco - The Look of Love
TTITLE14=BJ Thomas - This Guy's In Love
TTITLE15=Bill Evans - Alfie
EXTD=YEAR: 2000
EXTT0=
EXTT1=
EXTT2=
EXTT3=
EXTT4=
EXTT5=
EXTT6=
EXTT7=
EXTT8=
EXTT9=
EXTT10=
EXTT11=
EXTT12=
EXTT13=
EXTT14=
EXTT15=
PLAYORDER=
